<svg xmlns="http://www.w3.org/2000/svg" viewBox="0 0 180 180">
  <defs>
    <linearGradient id="bg1" x1="0%" y1="0%" x2="0%" y2="100%">
      <stop offset="0%" stop-color="#5AC8FA"/>
      <stop offset="100%" stop-color="#0A84FF"/>
    </linearGradient>
  </defs>
  <rect x="0" y="0" width="180" height="180" rx="40" fill="url(#bg1)"/>
  <g transform="translate(0, -2)">
    <path d="M90 36 C63 36 43 56 43 86 C43 104 50 117 63 124 L63 140 Q63 146 70 146 L74 146 L74 142 C74 139 76 137 79 137 C82 137 84 139 84 142 L84 146 L96 146 L96 142 C96 139 98 137 101 137 C104 137 107 139 107 142 L107 146 L110 146 Q117 146 117 140 L117 124 C130 117 137 104 137 86 C137 56 117 36 90 36 Z" fill="#fff"/>
    <ellipse cx="70" cy="88" rx="13" ry="14" fill="#0A84FF"/>
    <ellipse cx="110" cy="88" rx="13" ry="14" fill="#0A84FF"/>
    <path d="M90 102 L85 116 L90 119 L95 116 Z" fill="#0A84FF"/>
  </g>
</svg>
